<mxfile host="app.diagrams.net" agent="Mozilla/5.0 (Windows NT 10.0; Win64; x64) AppleWebKit/537.36 (KHTML, like Gecko) Chrome/139.0.0.0 Safari/537.36" version="28.1.1">
  <diagram name="Halaman-1" id="KejctSHkOfWOJK5oEkC1">
    <mxGraphModel dx="-82" dy="1098" grid="1" gridSize="10" guides="1" tooltips="1" connect="1" arrows="1" fold="1" page="1" pageScale="1" pageWidth="827" pageHeight="1169" background="#FFFFFF" math="0" shadow="0">
      <root>
        <mxCell id="0" />
        <mxCell id="1" parent="0" />
        <mxCell id="xTBfoUBhAIxSv1VB99wt-36" value="" style="edgeStyle=orthogonalEdgeStyle;rounded=0;orthogonalLoop=1;jettySize=auto;html=1;" edge="1" parent="1" source="xTBfoUBhAIxSv1VB99wt-37">
          <mxGeometry relative="1" as="geometry">
            <mxPoint x="2061.5" y="850" as="targetPoint" />
          </mxGeometry>
        </mxCell>
        <mxCell id="xTBfoUBhAIxSv1VB99wt-37" value="Start" style="ellipse;whiteSpace=wrap;html=1;" vertex="1" parent="1">
          <mxGeometry x="2001.5" y="680" width="120" height="80" as="geometry" />
        </mxCell>
        <mxCell id="xTBfoUBhAIxSv1VB99wt-38" value="" style="edgeStyle=orthogonalEdgeStyle;rounded=0;orthogonalLoop=1;jettySize=auto;html=1;" edge="1" parent="1" target="xTBfoUBhAIxSv1VB99wt-40">
          <mxGeometry relative="1" as="geometry">
            <mxPoint x="2061.5" y="910" as="sourcePoint" />
          </mxGeometry>
        </mxCell>
        <mxCell id="xTBfoUBhAIxSv1VB99wt-39" value="" style="edgeStyle=orthogonalEdgeStyle;rounded=0;orthogonalLoop=1;jettySize=auto;html=1;" edge="1" parent="1" source="xTBfoUBhAIxSv1VB99wt-40" target="xTBfoUBhAIxSv1VB99wt-43">
          <mxGeometry relative="1" as="geometry" />
        </mxCell>
        <mxCell id="xTBfoUBhAIxSv1VB99wt-40" value="Masukan email dan password" style="shape=parallelogram;perimeter=parallelogramPerimeter;whiteSpace=wrap;html=1;fixedSize=1;" vertex="1" parent="1">
          <mxGeometry x="1984.5" y="990" width="154" height="77" as="geometry" />
        </mxCell>
        <mxCell id="xTBfoUBhAIxSv1VB99wt-41" value="" style="edgeStyle=orthogonalEdgeStyle;rounded=0;orthogonalLoop=1;jettySize=auto;html=1;" edge="1" parent="1" source="xTBfoUBhAIxSv1VB99wt-43" target="xTBfoUBhAIxSv1VB99wt-46">
          <mxGeometry relative="1" as="geometry" />
        </mxCell>
        <mxCell id="xTBfoUBhAIxSv1VB99wt-42" value="" style="edgeStyle=orthogonalEdgeStyle;rounded=0;orthogonalLoop=1;jettySize=auto;html=1;" edge="1" parent="1" source="xTBfoUBhAIxSv1VB99wt-43" target="xTBfoUBhAIxSv1VB99wt-48">
          <mxGeometry relative="1" as="geometry" />
        </mxCell>
        <mxCell id="xTBfoUBhAIxSv1VB99wt-43" value="Apakah Email&amp;nbsp;&lt;br&gt;ada?" style="rhombus;whiteSpace=wrap;html=1;" vertex="1" parent="1">
          <mxGeometry x="2004.5" y="1120" width="114" height="114" as="geometry" />
        </mxCell>
        <mxCell id="xTBfoUBhAIxSv1VB99wt-44" value="" style="edgeStyle=orthogonalEdgeStyle;rounded=0;orthogonalLoop=1;jettySize=auto;html=1;" edge="1" parent="1" source="xTBfoUBhAIxSv1VB99wt-46" target="xTBfoUBhAIxSv1VB99wt-50">
          <mxGeometry relative="1" as="geometry" />
        </mxCell>
        <mxCell id="xTBfoUBhAIxSv1VB99wt-45" value="" style="edgeStyle=orthogonalEdgeStyle;rounded=0;orthogonalLoop=1;jettySize=auto;html=1;" edge="1" parent="1" source="xTBfoUBhAIxSv1VB99wt-46" target="xTBfoUBhAIxSv1VB99wt-53">
          <mxGeometry relative="1" as="geometry" />
        </mxCell>
        <mxCell id="xTBfoUBhAIxSv1VB99wt-46" value="Apakah Email dan&lt;div&gt;password ada?&lt;/div&gt;" style="rhombus;whiteSpace=wrap;html=1;" vertex="1" parent="1">
          <mxGeometry x="2001.5" y="1280" width="121" height="121" as="geometry" />
        </mxCell>
        <mxCell id="xTBfoUBhAIxSv1VB99wt-47" style="edgeStyle=orthogonalEdgeStyle;rounded=0;orthogonalLoop=1;jettySize=auto;html=1;exitX=1;exitY=0.5;exitDx=0;exitDy=0;" edge="1" parent="1" source="xTBfoUBhAIxSv1VB99wt-48" target="xTBfoUBhAIxSv1VB99wt-76">
          <mxGeometry relative="1" as="geometry" />
        </mxCell>
        <mxCell id="xTBfoUBhAIxSv1VB99wt-48" value="Tidak" style="shape=parallelogram;perimeter=parallelogramPerimeter;whiteSpace=wrap;html=1;fixedSize=1;" vertex="1" parent="1">
          <mxGeometry x="2138.5" y="1147" width="120" height="60" as="geometry" />
        </mxCell>
        <mxCell id="xTBfoUBhAIxSv1VB99wt-49" style="edgeStyle=orthogonalEdgeStyle;rounded=0;orthogonalLoop=1;jettySize=auto;html=1;entryX=1;entryY=0.5;entryDx=0;entryDy=0;" edge="1" parent="1" source="xTBfoUBhAIxSv1VB99wt-50" target="xTBfoUBhAIxSv1VB99wt-40">
          <mxGeometry relative="1" as="geometry">
            <Array as="points">
              <mxPoint x="2427.5" y="1341" />
              <mxPoint x="2427.5" y="1029" />
            </Array>
          </mxGeometry>
        </mxCell>
        <mxCell id="xTBfoUBhAIxSv1VB99wt-50" value="Tidak" style="shape=parallelogram;perimeter=parallelogramPerimeter;whiteSpace=wrap;html=1;fixedSize=1;" vertex="1" parent="1">
          <mxGeometry x="2203" y="1310.5" width="120" height="60" as="geometry" />
        </mxCell>
        <mxCell id="xTBfoUBhAIxSv1VB99wt-51" value="" style="edgeStyle=orthogonalEdgeStyle;rounded=0;orthogonalLoop=1;jettySize=auto;html=1;" edge="1" parent="1" source="xTBfoUBhAIxSv1VB99wt-53" target="xTBfoUBhAIxSv1VB99wt-56">
          <mxGeometry relative="1" as="geometry" />
        </mxCell>
        <mxCell id="xTBfoUBhAIxSv1VB99wt-131" value="YA" style="edgeLabel;html=1;align=center;verticalAlign=middle;resizable=0;points=[];fontSize=12;" vertex="1" connectable="0" parent="xTBfoUBhAIxSv1VB99wt-51">
          <mxGeometry x="-0.2863" y="4" relative="1" as="geometry">
            <mxPoint as="offset" />
          </mxGeometry>
        </mxCell>
        <mxCell id="xTBfoUBhAIxSv1VB99wt-52" value="" style="edgeStyle=orthogonalEdgeStyle;rounded=0;orthogonalLoop=1;jettySize=auto;html=1;" edge="1" parent="1" source="xTBfoUBhAIxSv1VB99wt-53" target="xTBfoUBhAIxSv1VB99wt-59">
          <mxGeometry relative="1" as="geometry" />
        </mxCell>
        <mxCell id="xTBfoUBhAIxSv1VB99wt-53" value="Role akun?" style="rhombus;whiteSpace=wrap;html=1;" vertex="1" parent="1">
          <mxGeometry x="2001.5" y="1481" width="121" height="121" as="geometry" />
        </mxCell>
        <mxCell id="xTBfoUBhAIxSv1VB99wt-54" style="edgeStyle=orthogonalEdgeStyle;rounded=0;orthogonalLoop=1;jettySize=auto;html=1;entryX=1;entryY=0.5;entryDx=0;entryDy=0;" edge="1" parent="1" target="xTBfoUBhAIxSv1VB99wt-40">
          <mxGeometry relative="1" as="geometry">
            <mxPoint x="2397.5" y="1177" as="sourcePoint" />
            <Array as="points">
              <mxPoint x="2427.5" y="1177" />
              <mxPoint x="2427.5" y="1029" />
            </Array>
          </mxGeometry>
        </mxCell>
        <mxCell id="xTBfoUBhAIxSv1VB99wt-55" value="" style="edgeStyle=orthogonalEdgeStyle;rounded=0;orthogonalLoop=1;jettySize=auto;html=1;" edge="1" parent="1" source="xTBfoUBhAIxSv1VB99wt-56" target="xTBfoUBhAIxSv1VB99wt-96">
          <mxGeometry relative="1" as="geometry" />
        </mxCell>
        <mxCell id="xTBfoUBhAIxSv1VB99wt-56" value="Petugas?" style="rhombus;whiteSpace=wrap;html=1;" vertex="1" parent="1">
          <mxGeometry x="2340" y="1640" width="121" height="121" as="geometry" />
        </mxCell>
        <mxCell id="xTBfoUBhAIxSv1VB99wt-57" value="" style="edgeStyle=orthogonalEdgeStyle;rounded=0;orthogonalLoop=1;jettySize=auto;html=1;" edge="1" parent="1" source="xTBfoUBhAIxSv1VB99wt-59" target="xTBfoUBhAIxSv1VB99wt-61">
          <mxGeometry relative="1" as="geometry" />
        </mxCell>
        <mxCell id="xTBfoUBhAIxSv1VB99wt-132" value="YA" style="edgeLabel;html=1;align=center;verticalAlign=middle;resizable=0;points=[];fontSize=12;" vertex="1" connectable="0" parent="xTBfoUBhAIxSv1VB99wt-57">
          <mxGeometry x="-0.248" y="2" relative="1" as="geometry">
            <mxPoint as="offset" />
          </mxGeometry>
        </mxCell>
        <mxCell id="xTBfoUBhAIxSv1VB99wt-127" value="YA" style="edgeStyle=orthogonalEdgeStyle;rounded=0;orthogonalLoop=1;jettySize=auto;html=1;exitX=0.5;exitY=1;exitDx=0;exitDy=0;entryX=0.5;entryY=0;entryDx=0;entryDy=0;fontSize=12;startSize=8;endSize=8;" edge="1" parent="1" source="xTBfoUBhAIxSv1VB99wt-59" target="xTBfoUBhAIxSv1VB99wt-126">
          <mxGeometry relative="1" as="geometry" />
        </mxCell>
        <mxCell id="xTBfoUBhAIxSv1VB99wt-59" value="Role akun?" style="rhombus;whiteSpace=wrap;html=1;" vertex="1" parent="1">
          <mxGeometry x="2001.5" y="1640" width="121" height="121" as="geometry" />
        </mxCell>
        <mxCell id="xTBfoUBhAIxSv1VB99wt-60" value="" style="edgeStyle=orthogonalEdgeStyle;rounded=0;orthogonalLoop=1;jettySize=auto;html=1;" edge="1" parent="1" source="xTBfoUBhAIxSv1VB99wt-61" target="xTBfoUBhAIxSv1VB99wt-85">
          <mxGeometry relative="1" as="geometry" />
        </mxCell>
        <mxCell id="xTBfoUBhAIxSv1VB99wt-61" value="Admin?" style="rhombus;whiteSpace=wrap;html=1;" vertex="1" parent="1">
          <mxGeometry x="1780.5" y="1640" width="121" height="121" as="geometry" />
        </mxCell>
        <mxCell id="xTBfoUBhAIxSv1VB99wt-64" value="" style="edgeStyle=orthogonalEdgeStyle;rounded=0;orthogonalLoop=1;jettySize=auto;html=1;" edge="1" parent="1" source="xTBfoUBhAIxSv1VB99wt-65" target="xTBfoUBhAIxSv1VB99wt-68">
          <mxGeometry relative="1" as="geometry" />
        </mxCell>
        <mxCell id="xTBfoUBhAIxSv1VB99wt-65" value="Buat laporan" style="shape=parallelogram;perimeter=parallelogramPerimeter;whiteSpace=wrap;html=1;fixedSize=1;" vertex="1" parent="1">
          <mxGeometry x="2004" y="2101.41" width="120" height="60" as="geometry" />
        </mxCell>
        <mxCell id="xTBfoUBhAIxSv1VB99wt-66" value="" style="edgeStyle=orthogonalEdgeStyle;rounded=0;orthogonalLoop=1;jettySize=auto;html=1;" edge="1" parent="1" source="xTBfoUBhAIxSv1VB99wt-68" target="xTBfoUBhAIxSv1VB99wt-71">
          <mxGeometry relative="1" as="geometry" />
        </mxCell>
        <mxCell id="xTBfoUBhAIxSv1VB99wt-67" value="" style="edgeStyle=orthogonalEdgeStyle;rounded=0;orthogonalLoop=1;jettySize=auto;html=1;" edge="1" parent="1" source="xTBfoUBhAIxSv1VB99wt-68" target="xTBfoUBhAIxSv1VB99wt-81">
          <mxGeometry relative="1" as="geometry" />
        </mxCell>
        <mxCell id="xTBfoUBhAIxSv1VB99wt-68" value="Isi semua?" style="rhombus;whiteSpace=wrap;html=1;" vertex="1" parent="1">
          <mxGeometry x="2012.25" y="2210.66" width="104.5" height="104.5" as="geometry" />
        </mxCell>
        <mxCell id="xTBfoUBhAIxSv1VB99wt-69" value="" style="edgeStyle=orthogonalEdgeStyle;rounded=0;orthogonalLoop=1;jettySize=auto;html=1;" edge="1" parent="1" source="xTBfoUBhAIxSv1VB99wt-71" target="xTBfoUBhAIxSv1VB99wt-74">
          <mxGeometry relative="1" as="geometry" />
        </mxCell>
        <mxCell id="xTBfoUBhAIxSv1VB99wt-70" value="" style="edgeStyle=orthogonalEdgeStyle;rounded=0;orthogonalLoop=1;jettySize=auto;html=1;" edge="1" parent="1" source="xTBfoUBhAIxSv1VB99wt-71" target="xTBfoUBhAIxSv1VB99wt-83">
          <mxGeometry relative="1" as="geometry" />
        </mxCell>
        <mxCell id="xTBfoUBhAIxSv1VB99wt-71" value="Berhasil terkirim?" style="rhombus;whiteSpace=wrap;html=1;" vertex="1" parent="1">
          <mxGeometry x="2006.5" y="2334.16" width="114.5" height="114.5" as="geometry" />
        </mxCell>
        <mxCell id="xTBfoUBhAIxSv1VB99wt-129" style="edgeStyle=orthogonalEdgeStyle;rounded=0;orthogonalLoop=1;jettySize=auto;html=1;entryX=0.5;entryY=0;entryDx=0;entryDy=0;fontSize=12;startSize=8;endSize=8;" edge="1" parent="1" source="xTBfoUBhAIxSv1VB99wt-74" target="xTBfoUBhAIxSv1VB99wt-112">
          <mxGeometry relative="1" as="geometry" />
        </mxCell>
        <mxCell id="xTBfoUBhAIxSv1VB99wt-74" value="Terkirim" style="rounded=1;whiteSpace=wrap;html=1;" vertex="1" parent="1">
          <mxGeometry x="2004" y="2491.41" width="120" height="60" as="geometry" />
        </mxCell>
        <mxCell id="xTBfoUBhAIxSv1VB99wt-75" value="Login" style="rounded=1;whiteSpace=wrap;html=1;" vertex="1" parent="1">
          <mxGeometry x="2001.5" y="850" width="120" height="60" as="geometry" />
        </mxCell>
        <mxCell id="xTBfoUBhAIxSv1VB99wt-76" value="Buat akun" style="rounded=1;whiteSpace=wrap;html=1;" vertex="1" parent="1">
          <mxGeometry x="2277.5" y="1147" width="120" height="60" as="geometry" />
        </mxCell>
        <mxCell id="xTBfoUBhAIxSv1VB99wt-77" style="edgeStyle=orthogonalEdgeStyle;rounded=0;orthogonalLoop=1;jettySize=auto;html=1;entryX=0.5;entryY=0;entryDx=0;entryDy=0;" edge="1" parent="1" source="xTBfoUBhAIxSv1VB99wt-78" target="xTBfoUBhAIxSv1VB99wt-65">
          <mxGeometry relative="1" as="geometry" />
        </mxCell>
        <mxCell id="xTBfoUBhAIxSv1VB99wt-128" style="edgeStyle=orthogonalEdgeStyle;rounded=0;orthogonalLoop=1;jettySize=auto;html=1;exitX=0.5;exitY=0;exitDx=0;exitDy=0;entryX=0.5;entryY=1;entryDx=0;entryDy=0;fontSize=12;startSize=8;endSize=8;" edge="1" parent="1" source="xTBfoUBhAIxSv1VB99wt-78" target="xTBfoUBhAIxSv1VB99wt-126">
          <mxGeometry relative="1" as="geometry" />
        </mxCell>
        <mxCell id="xTBfoUBhAIxSv1VB99wt-78" value="Halaman masyarakat" style="rounded=1;whiteSpace=wrap;html=1;" vertex="1" parent="1">
          <mxGeometry x="2004" y="1981.41" width="120" height="60" as="geometry" />
        </mxCell>
        <mxCell id="xTBfoUBhAIxSv1VB99wt-80" style="edgeStyle=orthogonalEdgeStyle;rounded=0;orthogonalLoop=1;jettySize=auto;html=1;entryX=1;entryY=0.5;entryDx=0;entryDy=0;" edge="1" parent="1" source="xTBfoUBhAIxSv1VB99wt-81" target="xTBfoUBhAIxSv1VB99wt-65">
          <mxGeometry relative="1" as="geometry">
            <Array as="points">
              <mxPoint x="2282.5" y="2262.41" />
              <mxPoint x="2282.5" y="2131.41" />
            </Array>
          </mxGeometry>
        </mxCell>
        <mxCell id="xTBfoUBhAIxSv1VB99wt-81" value="Tidak" style="shape=parallelogram;perimeter=parallelogramPerimeter;whiteSpace=wrap;html=1;fixedSize=1;" vertex="1" parent="1">
          <mxGeometry x="2149" y="2232.91" width="120" height="60" as="geometry" />
        </mxCell>
        <mxCell id="xTBfoUBhAIxSv1VB99wt-82" style="edgeStyle=orthogonalEdgeStyle;rounded=0;orthogonalLoop=1;jettySize=auto;html=1;entryX=1;entryY=0.5;entryDx=0;entryDy=0;" edge="1" parent="1" source="xTBfoUBhAIxSv1VB99wt-83" target="xTBfoUBhAIxSv1VB99wt-65">
          <mxGeometry relative="1" as="geometry">
            <Array as="points">
              <mxPoint x="2282.5" y="2391.41" />
              <mxPoint x="2282.5" y="2131.41" />
            </Array>
          </mxGeometry>
        </mxCell>
        <mxCell id="xTBfoUBhAIxSv1VB99wt-83" value="Tidak" style="shape=parallelogram;perimeter=parallelogramPerimeter;whiteSpace=wrap;html=1;fixedSize=1;" vertex="1" parent="1">
          <mxGeometry x="2133" y="2361.41" width="120" height="60" as="geometry" />
        </mxCell>
        <mxCell id="xTBfoUBhAIxSv1VB99wt-84" value="" style="edgeStyle=orthogonalEdgeStyle;rounded=0;orthogonalLoop=1;jettySize=auto;html=1;" edge="1" parent="1" source="xTBfoUBhAIxSv1VB99wt-85" target="xTBfoUBhAIxSv1VB99wt-87">
          <mxGeometry relative="1" as="geometry" />
        </mxCell>
        <mxCell id="xTBfoUBhAIxSv1VB99wt-85" value="Halaman admin" style="rounded=1;whiteSpace=wrap;html=1;" vertex="1" parent="1">
          <mxGeometry x="1781.5" y="1860" width="120" height="60" as="geometry" />
        </mxCell>
        <mxCell id="xTBfoUBhAIxSv1VB99wt-86" value="" style="edgeStyle=orthogonalEdgeStyle;rounded=0;orthogonalLoop=1;jettySize=auto;html=1;" edge="1" parent="1" source="xTBfoUBhAIxSv1VB99wt-87" target="xTBfoUBhAIxSv1VB99wt-89">
          <mxGeometry relative="1" as="geometry" />
        </mxCell>
        <mxCell id="xTBfoUBhAIxSv1VB99wt-87" value="Keloka data&amp;nbsp;&lt;div&gt;pengguna&lt;/div&gt;" style="rounded=1;whiteSpace=wrap;html=1;" vertex="1" parent="1">
          <mxGeometry x="1781.5" y="1980" width="120" height="60" as="geometry" />
        </mxCell>
        <mxCell id="xTBfoUBhAIxSv1VB99wt-88" value="" style="edgeStyle=orthogonalEdgeStyle;rounded=0;orthogonalLoop=1;jettySize=auto;html=1;" edge="1" parent="1" source="xTBfoUBhAIxSv1VB99wt-89" target="xTBfoUBhAIxSv1VB99wt-91">
          <mxGeometry relative="1" as="geometry" />
        </mxCell>
        <mxCell id="xTBfoUBhAIxSv1VB99wt-89" value="Kelola kategori&lt;div&gt;laporan&lt;/div&gt;" style="rounded=1;whiteSpace=wrap;html=1;" vertex="1" parent="1">
          <mxGeometry x="1781.5" y="2111.5" width="120" height="60" as="geometry" />
        </mxCell>
        <mxCell id="xTBfoUBhAIxSv1VB99wt-90" value="" style="edgeStyle=orthogonalEdgeStyle;rounded=0;orthogonalLoop=1;jettySize=auto;html=1;" edge="1" parent="1" source="xTBfoUBhAIxSv1VB99wt-91" target="xTBfoUBhAIxSv1VB99wt-93">
          <mxGeometry relative="1" as="geometry" />
        </mxCell>
        <mxCell id="xTBfoUBhAIxSv1VB99wt-91" value="Monitoring semua&amp;nbsp;&lt;div&gt;laporan dan respon&lt;/div&gt;" style="rounded=1;whiteSpace=wrap;html=1;" vertex="1" parent="1">
          <mxGeometry x="1780.5" y="2240" width="120" height="60" as="geometry" />
        </mxCell>
        <mxCell id="xTBfoUBhAIxSv1VB99wt-130" style="edgeStyle=orthogonalEdgeStyle;rounded=0;orthogonalLoop=1;jettySize=auto;html=1;exitX=0.5;exitY=1;exitDx=0;exitDy=0;entryX=0.5;entryY=0;entryDx=0;entryDy=0;fontSize=12;startSize=8;endSize=8;" edge="1" parent="1" source="xTBfoUBhAIxSv1VB99wt-93" target="xTBfoUBhAIxSv1VB99wt-112">
          <mxGeometry relative="1" as="geometry">
            <Array as="points">
              <mxPoint x="1841" y="2600" />
              <mxPoint x="2064" y="2600" />
            </Array>
          </mxGeometry>
        </mxCell>
        <mxCell id="xTBfoUBhAIxSv1VB99wt-93" value="Lihat statistik&lt;div&gt;laporan&lt;/div&gt;" style="rounded=1;whiteSpace=wrap;html=1;" vertex="1" parent="1">
          <mxGeometry x="1780.5" y="2370" width="120" height="60" as="geometry" />
        </mxCell>
        <mxCell id="xTBfoUBhAIxSv1VB99wt-95" value="" style="edgeStyle=orthogonalEdgeStyle;rounded=0;orthogonalLoop=1;jettySize=auto;html=1;" edge="1" parent="1" source="xTBfoUBhAIxSv1VB99wt-96" target="xTBfoUBhAIxSv1VB99wt-98">
          <mxGeometry relative="1" as="geometry" />
        </mxCell>
        <mxCell id="xTBfoUBhAIxSv1VB99wt-96" value="Ke halaman&amp;nbsp;&lt;div&gt;petugas&lt;/div&gt;" style="rounded=1;whiteSpace=wrap;html=1;" vertex="1" parent="1">
          <mxGeometry x="2341" y="1820" width="120" height="60" as="geometry" />
        </mxCell>
        <mxCell id="xTBfoUBhAIxSv1VB99wt-97" value="" style="edgeStyle=orthogonalEdgeStyle;rounded=0;orthogonalLoop=1;jettySize=auto;html=1;" edge="1" parent="1" source="xTBfoUBhAIxSv1VB99wt-98" target="xTBfoUBhAIxSv1VB99wt-100">
          <mxGeometry relative="1" as="geometry" />
        </mxCell>
        <mxCell id="xTBfoUBhAIxSv1VB99wt-98" value="Lihat&amp;nbsp;&lt;div&gt;laporan&lt;/div&gt;" style="shape=parallelogram;perimeter=parallelogramPerimeter;whiteSpace=wrap;html=1;fixedSize=1;rounded=1;" vertex="1" parent="1">
          <mxGeometry x="2340" y="1940" width="120" height="60" as="geometry" />
        </mxCell>
        <mxCell id="xTBfoUBhAIxSv1VB99wt-99" value="" style="edgeStyle=orthogonalEdgeStyle;rounded=0;orthogonalLoop=1;jettySize=auto;html=1;" edge="1" parent="1" source="xTBfoUBhAIxSv1VB99wt-100" target="xTBfoUBhAIxSv1VB99wt-102">
          <mxGeometry relative="1" as="geometry" />
        </mxCell>
        <mxCell id="xTBfoUBhAIxSv1VB99wt-100" value="Lihat daftar&amp;nbsp;&lt;div&gt;laporan masuk&lt;/div&gt;" style="whiteSpace=wrap;html=1;rounded=1;" vertex="1" parent="1">
          <mxGeometry x="2340" y="2071.5" width="120" height="60" as="geometry" />
        </mxCell>
        <mxCell id="xTBfoUBhAIxSv1VB99wt-101" value="" style="edgeStyle=orthogonalEdgeStyle;rounded=0;orthogonalLoop=1;jettySize=auto;html=1;" edge="1" parent="1" source="xTBfoUBhAIxSv1VB99wt-102" target="xTBfoUBhAIxSv1VB99wt-104">
          <mxGeometry relative="1" as="geometry" />
        </mxCell>
        <mxCell id="xTBfoUBhAIxSv1VB99wt-102" value="Pilih laporan berdasarkan kategori/wilayah" style="whiteSpace=wrap;html=1;rounded=1;" vertex="1" parent="1">
          <mxGeometry x="2340" y="2200" width="120" height="60" as="geometry" />
        </mxCell>
        <mxCell id="xTBfoUBhAIxSv1VB99wt-103" value="" style="edgeStyle=orthogonalEdgeStyle;rounded=0;orthogonalLoop=1;jettySize=auto;html=1;" edge="1" parent="1" source="xTBfoUBhAIxSv1VB99wt-104" target="xTBfoUBhAIxSv1VB99wt-107">
          <mxGeometry relative="1" as="geometry" />
        </mxCell>
        <mxCell id="xTBfoUBhAIxSv1VB99wt-104" value="Kirim tanggapan" style="whiteSpace=wrap;html=1;rounded=1;" vertex="1" parent="1">
          <mxGeometry x="2340" y="2300" width="120" height="60" as="geometry" />
        </mxCell>
        <mxCell id="xTBfoUBhAIxSv1VB99wt-105" value="" style="edgeStyle=orthogonalEdgeStyle;rounded=0;orthogonalLoop=1;jettySize=auto;html=1;" edge="1" parent="1" source="xTBfoUBhAIxSv1VB99wt-107" target="xTBfoUBhAIxSv1VB99wt-109">
          <mxGeometry relative="1" as="geometry" />
        </mxCell>
        <mxCell id="xTBfoUBhAIxSv1VB99wt-108" value="" style="edgeStyle=orthogonalEdgeStyle;rounded=0;orthogonalLoop=1;jettySize=auto;html=1;" edge="1" parent="1" source="xTBfoUBhAIxSv1VB99wt-109" target="xTBfoUBhAIxSv1VB99wt-111">
          <mxGeometry relative="1" as="geometry" />
        </mxCell>
        <mxCell id="xTBfoUBhAIxSv1VB99wt-110" value="" style="edgeStyle=orthogonalEdgeStyle;rounded=0;orthogonalLoop=1;jettySize=auto;html=1;" edge="1" parent="1" source="xTBfoUBhAIxSv1VB99wt-111" target="xTBfoUBhAIxSv1VB99wt-112">
          <mxGeometry relative="1" as="geometry" />
        </mxCell>
        <mxCell id="xTBfoUBhAIxSv1VB99wt-111" value="Update status" style="whiteSpace=wrap;html=1;rounded=1;" vertex="1" parent="1">
          <mxGeometry x="2341" y="2661.4049999999997" width="120" height="60" as="geometry" />
        </mxCell>
        <mxCell id="xTBfoUBhAIxSv1VB99wt-112" value="Selesai" style="whiteSpace=wrap;html=1;rounded=1;arcSize=50;" vertex="1" parent="1">
          <mxGeometry x="2005" y="2661.4049999999993" width="120" height="60" as="geometry" />
        </mxCell>
        <mxCell id="xTBfoUBhAIxSv1VB99wt-136" style="edgeStyle=orthogonalEdgeStyle;rounded=0;orthogonalLoop=1;jettySize=auto;html=1;exitX=0.5;exitY=0;exitDx=0;exitDy=0;entryX=1;entryY=0.5;entryDx=0;entryDy=0;fontSize=12;startSize=8;endSize=8;" edge="1" parent="1" source="xTBfoUBhAIxSv1VB99wt-114" target="xTBfoUBhAIxSv1VB99wt-104">
          <mxGeometry relative="1" as="geometry" />
        </mxCell>
        <mxCell id="xTBfoUBhAIxSv1VB99wt-114" value="Tidak" style="shape=parallelogram;perimeter=parallelogramPerimeter;whiteSpace=wrap;html=1;fixedSize=1;rounded=1;" vertex="1" parent="1">
          <mxGeometry x="2500" y="2421.405" width="120" height="60" as="geometry" />
        </mxCell>
        <mxCell id="xTBfoUBhAIxSv1VB99wt-135" value="" style="edgeStyle=none;curved=1;rounded=0;orthogonalLoop=1;jettySize=auto;html=1;fontSize=12;startSize=8;endSize=8;" edge="1" parent="1" source="xTBfoUBhAIxSv1VB99wt-107" target="xTBfoUBhAIxSv1VB99wt-114">
          <mxGeometry relative="1" as="geometry" />
        </mxCell>
        <mxCell id="xTBfoUBhAIxSv1VB99wt-107" value="Update status?" style="rhombus;whiteSpace=wrap;html=1;rounded=1;" vertex="1" parent="1">
          <mxGeometry x="2352.75" y="2400" width="96.5" height="102.81" as="geometry" />
        </mxCell>
        <mxCell id="xTBfoUBhAIxSv1VB99wt-123" value="" style="edgeStyle=orthogonalEdgeStyle;rounded=0;orthogonalLoop=1;jettySize=auto;html=1;" edge="1" parent="1" source="xTBfoUBhAIxSv1VB99wt-107" target="xTBfoUBhAIxSv1VB99wt-109">
          <mxGeometry relative="1" as="geometry">
            <mxPoint x="2449" y="2451.41" as="sourcePoint" />
            <mxPoint x="2621" y="2625.41" as="targetPoint" />
          </mxGeometry>
        </mxCell>
        <mxCell id="xTBfoUBhAIxSv1VB99wt-109" value="Ya" style="shape=parallelogram;perimeter=parallelogramPerimeter;whiteSpace=wrap;html=1;fixedSize=1;rounded=1;" vertex="1" parent="1">
          <mxGeometry x="2341" y="2551.4049999999997" width="120" height="60" as="geometry" />
        </mxCell>
        <mxCell id="xTBfoUBhAIxSv1VB99wt-126" value="Masyarakat?" style="rhombus;whiteSpace=wrap;html=1;" vertex="1" parent="1">
          <mxGeometry x="2001.5" y="1836.16" width="119.5" height="110.5" as="geometry" />
        </mxCell>
      </root>
    </mxGraphModel>
  </diagram>
</mxfile>
